<svg width="678" height="19" viewBox="0 0 678 19" fill="none" xmlns="http://www.w3.org/2000/svg">
<path d="M0 9.5C0 4.25329 4.25329 0 9.5 0H668.5C673.747 0 678 4.25329 678 9.5C678 14.7467 673.747 19 668.5 19H9.5C4.2533 19 0 14.7467 0 9.5Z" fill="#FFD900" fill-opacity="0.68"/>
<path d="M1.97658 9.5C1.97658 5.35786 5.33444 2 9.47658 2H668.523C672.665 2 676.023 5.35786 676.023 9.5C676.023 13.6421 672.665 17 668.523 17H9.47657C5.33443 17 1.97658 13.6421 1.97658 9.5Z" fill="#333126"/>
<path d="M7 9.5C7 8.11929 8.11929 7 9.5 7H206.5C207.881 7 209 8.11929 209 9.5C209 10.8807 207.881 12 206.5 12H9.5C8.11929 12 7 10.8807 7 9.5Z" fill="#FFD900"/>
</svg>
